#!OML:ASF X:\für Bonn\!DataBase\2005_08_11_Bastian_Final\c3d\Bastian.ASF
:FULLY-SPECIFIED
:DEGREES
160
root -1.53798 17.1883 1.72336 168.327 0.132473 -176.016
lowerback 4.1052 -0.894371 0.453766
upperback 4.62971 -1.51283 0.95285
thorax 2.47374 -0.893776 0.746931
lowerneck -5.71871 -4.5121 -1.6158
upperneck -3.29558 -5.60893 6.28529
head 0.179673 -2.63966 2.12806
rclavicle -1.74247e-014 4.37326e-015
rhumerus -46.7473 33.5893 -108.664
rradius 33.902
rwrist -29.0848
rhand -42.4434 -3.36456
rfingers 7.12502
rthumb -15.3223 -32.7769
lclavicle -1.74247e-014 4.37326e-015
lhumerus -95.579 -36.0609 150.98
lradius 30.1022
lwrist 39.5902
lhand -33.7729 18.5759
lfingers 7.12502
lthumb -6.96038 48.4415
rfemur -0.863583 3.2541 27.9661
rtibia 38.8726
rfoot -21.076 -13.4659
rtoes 2.3609
lfemur 0.0688 1.56439 -16.3251
ltibia 36.9286
lfoot -19.7175 -1.34077
ltoes -14.4341
161
root -1.54403 17.1841 1.7289 168.272 -0.000496612 -175.994
lowerback 4.174 -0.869972 0.47649
upperback 4.69787 -1.48867 0.95831
thorax 2.50534 -0.884943 0.739848
lowerneck -5.77163 -4.56879 -1.54578
upperneck -3.36479 -5.6806 6.23885
head 0.165857 -2.67443 2.09846
rclavicle -2.90101e-015 -1.13307e-014
rhumerus -46.6034 34.3628 -108.636
rradius 33.7913
rwrist -29.6774
rhand -42.5113 -3.60424
rfingers 7.12502
rthumb -15.3877 -33.0116
lclavicle -2.90101e-015 -1.13307e-014
lhumerus -95.9143 -36.5075 151.767
lradius 29.78
lwrist 40.3626
lhand -33.5317 19.2919
lfingers 7.12502
lthumb -6.72752 49.1651
rfemur -0.871711 3.27785 27.9878
rtibia 38.9803
rfoot -21.1312 -13.6071
rtoes 2.31468
lfemur 0.170374 1.41377 -16.4063
ltibia 36.7402
lfoot -19.3813 -1.28838
ltoes -12.9163
162
root -1.55086 17.1804 1.73467 168.197 -0.126791 -175.976
lowerback 4.2464 -0.828174 0.497812
upperback 4.78247 -1.44386 0.974009
thorax 2.55213 -0.866955 0.743472
lowerneck -5.79582 -4.62938 -1.47799
upperneck -3.47969 -5.75441 6.17908
head 0.132497 -2.71117 2.06615
rclavicle 7.3892e-015 0
rhumerus -46.3614 35.0899 -108.454
rradius 33.7168
rwrist -30.057
rhand -42.5162 -3.94558
rfingers 7.12502
rthumb -15.3924 -33.3526
lclavicle 7.3892e-015 0
lhumerus -96.2713 -37.067 152.614
lradius 29.5092
lwrist 41.2616
lhand -33.3684 19.9331
lfingers 7.12502
lthumb -6.56987 49.8112
rfemur -0.849666 3.29531 28.0017
rtibia 39.0807
rfoot -21.2207 -13.7346
rtoes 2.12931
lfemur 0.316372 1.21669 -16.4994
ltibia 36.5373
lfoot -19.1085 -1.19172
ltoes -11.4966
163
root -1.55714 17.1778 1.74115 168.135 -0.267551 -175.946
lowerback 4.32626 -0.799183 0.495736
upperback 4.84579 -1.41556 1.0222
thorax 2.57428 -0.857943 0.794337
lowerneck -5.81417 -4.68163 -1.49762
upperneck -3.56551 -5.81576 6.15304
head 0.110829 -2.74117 2.06026
rclavicle -5.3369e-015 3.77691e-015
rhumerus -46.0616 35.8481 -108.184
rradius 33.6135
rwrist -30.2983
rhand -42.4622 -4.23236
rfingers 7.12502
rthumb -15.3404 -33.6433
lclavicle -5.3369e-015 3.77691e-015
lhumerus -96.4944 -37.6684 153.378
lradius 29.2482
lwrist 42.1966
lhand -33.3366 20.4035
lfingers 7.12502
lthumb -6.53916 50.2825
rfemur -0.838908 3.26802 28.0239
rtibia 39.1671
rfoot -21.3126 -13.858
rtoes 1.83454
lfemur 0.434905 1.07603 -16.55
ltibia 36.3346
lfoot -18.8793 -1.17877
ltoes -10.5396
164
root -1.56434 17.1748 1.74782 168.06 -0.404179 -175.922
lowerback 4.40595 -0.761362 0.51029
upperback 4.921 -1.376 1.05279
thorax 2.60791 -0.842955 0.817385
lowerneck -5.79703 -4.74433 -1.43326
upperneck -3.69276 -5.89355 6.06744
head 0.0659226 -2.78155 2.0214
rclavicle -9.35957e-015 -6.55989e-015
rhumerus -45.6558 36.5676 -107.835
rradius 33.5241
rwrist -30.3691
rhand -42.3339 -4.60537
rfingers 7.12502
rthumb -15.2168 -34.0258
lclavicle -9.35957e-015 -6.55989e-015
lhumerus -96.728 -38.3764 154.062
lradius 29.0829
lwrist 43.085
lhand -33.4539 20.7495
lfingers 7.12502
lthumb -6.6524 50.625
rfemur -0.818335 3.26648 28.0363
rtibia 39.2537
rfoot -21.4155 -13.9825
rtoes 1.47358
lfemur 0.583775 0.851441 -16.6365
ltibia 36.1211
lfoot -18.7161 -1.07846
ltoes -9.70765
165
root -1.57165 17.1712 1.75466 167.983 -0.533187 -175.878
lowerback 4.4742 -0.732423 0.558231
upperback 5.00735 -1.34904 1.07927
thorax 2.65888 -0.833695 0.817352
lowerneck -5.821 -4.78993 -1.39559
upperneck -3.78313 -5.94755 6.03337
head 0.0412297 -2.80785 2.00314
rclavicle 1.90884e-015 -1.51076e-014
rhumerus -45.1214 37.301 -107.415
rradius 33.4216
rwrist -30.3233
rhand -42.1508 -4.96655
rfingers 7.12502
rthumb -15.0404 -34.4002
lclavicle 1.90884e-015 -1.51076e-014
lhumerus -96.8537 -39.2025 154.601
lradius 28.9348
lwrist 43.9428
lhand -33.6415 20.8744
lfingers 7.12502
lthumb -6.83352 50.7441
rfemur -0.789506 3.28614 28.0846
rtibia 39.3358
rfoot -21.5178 -14.1471
rtoes 1.2466
lfemur 0.741033 0.710624 -16.6719
ltibia 35.9157
lfoot -18.5813 -1.04516
ltoes -8.9602
166
root -1.58015 17.1686 1.76173 167.907 -0.664599 -175.835
lowerback 4.54924 -0.708567 0.625867
upperback 5.08486 -1.32708 1.09492
thorax 2.69635 -0.825692 0.79551
lowerneck -5.80889 -4.83118 -1.33112
upperneck -3.90131 -5.99599 5.97736
head -0.000117081 -2.83279 1.97459
rclavicle -9.84683e-015 2.38542e-015
rhumerus -44.5391 38.0891 -106.976
rradius 33.3456
rwrist -30.3201
rhand -41.9579 -5.25526
rfingers 7.12502
rthumb -14.8546 -34.7028
lclavicle -9.84683e-015 2.38542e-015
lhumerus -96.9052 -40.1182 155.075
lradius 28.7442
lwrist 44.6477
lhand -33.8925 20.8665
lfingers 7.12502
lthumb -7.07581 50.7282
rfemur -0.766255 3.23828 28.1029
rtibia 39.4189
rfoot -21.6188 -14.2531
rtoes 0.864647
lfemur 0.897846 0.536769 -16.7205
ltibia 35.7149
lfoot -18.466 -0.982041
ltoes -8.54231
167
root -1.58807 17.1649 1.76921 167.821 -0.773016 -175.768
lowerback 4.64107 -0.669392 0.718521
upperback 5.15656 -1.28386 1.11533
thorax 2.71797 -0.806342 0.764494
lowerneck -5.80745 -4.88125 -1.24654
upperneck -3.97224 -6.06143 5.91548
head -0.0252093 -2.86634 1.93945
rclavicle 4.17758e-015 -4.96962e-015
rhumerus -43.8 38.7174 -106.385
rradius 33.2171
rwrist -30.0566
rhand -41.7072 -5.5201
rfingers 7.12502
rthumb -14.613 -34.9853
lclavicle 4.17758e-015 -4.96962e-015
lhumerus -96.968 -41.1389 155.483
lradius 28.6101
lwrist 45.1999
lhand -34.1741 20.7662
lfingers 7.12502
lthumb -7.34761 50.6186
rfemur -0.736106 3.15239 28.1447
rtibia 39.4931
rfoot -21.6692 -14.348
rtoes 0.510736
lfemur 1.06343 0.394013 -16.7221
ltibia 35.538
lfoot -18.3866 -0.927469
ltoes -8.32732
168
root -1.59636 17.1618 1.77849 167.745 -0.906122 -175.721
lowerback 4.72721 -0.639273 0.799317
upperback 5.23764 -1.25399 1.13091
thorax 2.75288 -0.794286 0.735147
lowerneck -5.81591 -4.92995 -1.20719
upperneck -4.0737 -6.11868 5.88757
head -0.0557635 -2.89446 1.92357
rclavicle 6.5397e-015 -4.17448e-015
rhumerus -42.9412 39.4126 -105.696
rradius 33.1241
rwrist -29.834
rhand -41.464 -5.70656
rfingers 7.12502
rthumb -14.3787 -35.1886
lclavicle 6.5397e-015 -4.17448e-015
lhumerus -96.7492 -42.2589 155.453
lradius 28.4522
lwrist 45.153
lhand -34.2738 20.6616
lfingers 7.12502
lthumb -7.44389 50.5106
rfemur -0.715526 3.06853 28.1561
rtibia 39.5643
rfoot -21.78 -14.4244
rtoes 0.353035
lfemur 1.19459 0.242095 -16.7526
ltibia 35.3778
lfoot -18.3254 -0.870099
ltoes -8.42162
169
root -1.60503 17.1589 1.7882 167.667 -1.02024 -175.634
lowerback 4.82057 -0.615303 0.921433
upperback 5.31021 -1.23167 1.16918
thorax 2.77496 -0.785176 0.706395
lowerneck -5.80113 -4.97183 -1.21402
upperneck -4.16116 -6.1669 5.87238
head -0.0841108 -2.91848 1.92041
rclavicle -9.6659e-015 1.0138e-014
rhumerus -42.0113 40.1631 -104.932
rradius 33.0645
rwrist -29.6257
rhand -41.2692 -5.80202
rfingers 7.12502
rthumb -14.1911 -35.2973
lclavicle -9.6659e-015 1.0138e-014
lhumerus -96.4938 -43.4586 155.328
lradius 28.3414
lwrist 44.8718
lhand -34.3021 20.5462
lfingers 7.12502
lthumb -7.47113 50.3943
rfemur -0.68457 3.06052 28.2305
rtibia 39.6203
rfoot -21.8902 -14.5223
rtoes 0.200576
lfemur 1.31402 0.151349 -16.7138
ltibia 35.2498
lfoot -18.2756 -0.87025
ltoes -8.55136
170
root -1.613 17.1566 1.79957 167.588 -1.13593 -175.592
lowerback 4.94087 -0.587841 1.00359
upperback 5.37811 -1.20394 1.18442
thorax 2.77737 -0.773971 0.676725
lowerneck -5.77925 -5.01578 -1.21205
upperneck -4.27178 -6.216 5.85776
head -0.121121 -2.94295 1.91649
rclavicle 1.21476e-014 -1.21259e-014
rhumerus -41.0258 40.9567 -104.107
rradius 33.1275
rwrist -29.451
rhand -41.1566 -5.95583
rfingers 7.12502
rthumb -14.0825 -35.4587
lclavicle 1.21476e-014 -1.21259e-014
lhumerus -96.0528 -44.7616 154.921
lradius 28.2129
lwrist 44.1658
lhand -34.1141 20.4979
lfingers 7.12502
lthumb -7.28973 50.3524
rfemur -0.661709 3.00732 28.2393
rtibia 39.668
rfoot -21.9751 -14.5913
rtoes 0.0747957
lfemur 1.41957 0.0561151 -16.7217
ltibia 35.1486
lfoot -18.2478 -0.889451
ltoes -8.56556
